<svg width="32" height="32" viewBox="0 0 32 32" fill="none" xmlns="http://www.w3.org/2000/svg">
  <circle cx="16" cy="16" r="4" fill="#b0b7c3"/>
  <path d="M16 4.5c1.2 0 2.1 1.1 2 2.3-.1 1.1.6 2.1 1.6 2.5 1 .4 2.2-.1 2.7-1.1.5-1 1.8-1.3 2.6-.5.8.8.5 2.1-.5 2.6-1 .5-1.5 1.7-1.1 2.7.4 1 1.4 1.7 2.5 1.6 1.2-.1 2.3.8 2.3 2s-1.1 2.1-2.3 2c-1.1-.1-2.1.6-2.5 1.6-.4 1 .1 2.2 1.1 2.7 1 .5 1.3 1.8.5 2.6-.8.8-2.1.5-2.6-.5-.5-1-1.7-1.5-2.7-1.1-1 .4-1.7 1.4-1.6 2.5.1 1.2-.8 2.3-2 2.3s-2.1-1.1-2-2.3c.1-1.1-.6-2.1-1.6-2.5-1-.4-2.2.1-2.7 1.1-.5 1-1.8 1.3-2.6.5-.8-.8-.5-2.1.5-2.6 1-.5 1.5-1.7 1.1-2.7-.4-1-1.4-1.7-2.5-1.6-1.2.1-2.3-.8-2.3-2s1.1-2.1 2.3-2c1.1.1 2.1-.6 2.5-1.6.4-1-.1-2.2-1.1-2.7-1-.5-1.3-1.8-.5-2.6.8-.8 2.1-.5 2.6.5.5 1 1.7 1.5 2.7 1.1 1-.4 1.7-1.4 1.6-2.5-.1-1.2.8-2.3 2-2.3z" fill="#b0b7c3"/>
</svg> 